<svg xmlns="http://www.w3.org/2000/svg" width="198" height="151" fill="none" viewBox="0 0 198 151"><path fill="#fff" d="M0 0h198v151H0z"/><path fill="#fff" d="M20 20h55v20H20z"/><path fill="#000091" fill-rule="evenodd" d="M42.738 37.64c.215-.214.431-.444.647-.676.385-.457.806-.887 1.255-1.286q.196-.177.412-.329a.2.2 0 0 0 .038-.075.2.2 0 0 1 .038-.076c-.095.038-.17.095-.246.151-.076.057-.151.114-.246.151-.038 0-.075-.037-.038-.075l.404-.303h-.026c-.037 0-.037-.037-.037-.075-.488-.075-.863.259-1.201.56l-.009.007c-.05.025-.1 0-.14-.02a.1.1 0 0 0-.049-.018c-.297.1-.552.281-.81.465-.234.166-.47.334-.74.442v-.075a3 3 0 0 0-.28.115c-.13.06-.263.119-.4.149a2.8 2.8 0 0 1-.719.043l-.225-.005q-.694.084-1.374.245l-.02.004-.01.003-.01.002a3.2 3.2 0 0 0-.73.299l-.055.065a.9.9 0 0 1-.259.226c-.164.084-.307.212-.45.338q-.087.08-.177.154a.1.1 0 0 1-.06.019l-.187.18q-.21.203-.422.402a.2.2 0 0 1-.115.014l.025-.04a11 11 0 0 1 .209-.334q.076-.118.16-.23a.035.035 0 0 0 0-.05.07.07 0 0 0-.054-.02q.291-.272.635-.473c-.025.002-.062-.018-.043-.045l.039-.06.026-.042.012-.034-.017-.019-.011-.011a1.5 1.5 0 0 0-.178.124 1 1 0 0 0-.08.09c-.06.077-.123.158-.218.157a.2.2 0 0 1-.058-.008.1.1 0 0 1-.04-.014l.006-.009.005-.01.006-.01.018-.033.01-.017.008-.015.014-.026.027-.048.008-.014.004-.007.008-.014.034-.058.015-.025.023-.04.016-.029h.001l.011-.02.012-.02a.045.045 0 0 0-.028-.067.9.9 0 0 1 .259-.226h-.012c.1-.05.2-.108.299-.165l.135-.078.041-.035.022-.019a2.6 2.6 0 0 0-.602.297.3.3 0 0 0-.063.035.09.09 0 0 1-.095-.035.04.04 0 0 1-.009-.028c.022-.044.07-.075.121-.108a.7.7 0 0 0 .106-.08c.038 0 .076 0 .076.037.75-.586 1.675-.721 2.603-.857.568-.083 1.137-.166 1.667-.352l.34-.227c.098-.039.185-.108.277-.18.088-.07.18-.143.29-.198.306-.21.532-.516.643-.87a.13.13 0 0 0-.038-.075 5.8 5.8 0 0 1-1.663 1.247c-.572.3-1.184.344-1.792.388-.236.017-.47.035-.702.066.038-.075.113-.075.189-.075 0-.09.047-.132.104-.184q.023-.02.047-.043h.113c.02 0 .029-.019.038-.038.01-.019.019-.038.038-.038.075 0 .189-.037.151-.037-.058-.077-.144-.047-.24-.013-.094.033-.196.068-.289.013.037-.037.047-.082.056-.124.01-.044.018-.084.057-.103h.151a.26.26 0 0 1 .076-.151c.337-.202.66-.378.978-.55q.326-.175.648-.357a.3.3 0 0 0-.12.033c-.058.026-.113.05-.183.005.038 0 .038-.029.038-.057 0-.029 0-.057.038-.057a4 4 0 0 0 .667-.27c.163-.078.327-.156.504-.221-.052 0-.099.013-.145.026-.088.025-.171.048-.27-.026q.036-.02.067-.046c.042-.034.084-.068.16-.068v-.113c0-.038.037-.038.075-.038a.13.13 0 0 1-.076-.038c.02-.039.06-.047.104-.057.041-.01.087-.02.123-.056-.038 0-.113 0-.113-.038.113-.15.302-.189.491-.227-.019-.037-.057-.037-.09-.037s-.061 0-.061-.038.038-.038.075-.038h-.075c-.059-.03-.05-.081-.042-.12q.004-.019.004-.031c.151-.176.202-.386.252-.596.025-.105.05-.21.088-.311-.038 0-.076 0-.076-.038-.366.404-.947.558-1.5.705l-.049.013h-.189a.77.77 0 0 1-.642-.038c-.092-.046-.156-.105-.225-.17a2 2 0 0 0-.153-.132 4.4 4.4 0 0 0-.945-.454 8.5 8.5 0 0 0-2.91-.416c.271-.148.561-.208.855-.268.156-.032.312-.064.468-.11q.14-.041.28-.084c.54-.165 1.066-.326 1.647-.294a.7.7 0 0 0-.26-.008q-.061.007-.118.008c-.425-.03-.851.062-1.297.158l-.328.07c-.19.037-.368.093-.548.15s-.359.114-.548.151a.8.8 0 0 0-.226.13c-.11.081-.216.158-.379.135v-.113c.378-.454.831-.907 1.436-.945.575-.096 1.123-.03 1.69.038q.156.02.313.037.728.078 1.436.265c.104 0 .162.091.218.18.047.072.092.143.16.16.09.03.181.036.272.042.136.01.272.018.408.11a1 1 0 0 0-.009-.076c-.008-.05-.016-.101.009-.152.085-.085.183-.062.278-.04.074.018.148.035.213.003.205-.129.01-.326-.183-.523a1.5 1.5 0 0 1-.232-.271.13.13 0 0 1 .037-.076q.134.12.258.244c.194.192.385.38.65.512.188.076.642.19.566-.037-.132-.292-.358-.546-.585-.802a9 9 0 0 1-.284-.332v-.151c-.055 0-.07-.02-.089-.046q-.01-.015-.024-.03v-.15c-.095-.048-.116-.126-.136-.205-.013-.046-.025-.094-.053-.136-.063-.105-.068-.234-.073-.366a1.1 1.1 0 0 0-.04-.314 4 4 0 0 1-.152-.643c-.044-.252-.095-.492-.144-.728-.076-.365-.15-.718-.196-1.086-.058-.552.22-1.016.506-1.493.085-.143.172-.286.25-.434.264-.454.567-.907 1.058-1.21.113-.452.414-.829.715-1.206l.003-.003c.302-.369.803-.593 1.166-.756q.492-.218 1.005-.383H20v20h18.368c.502-.361 1.002-.59 1.6-.863.26-.12.538-.246.843-.397l.2-.097.002-.001c.53-.257 1.403-.68 1.725-1.001m-6-2.744c.026-.133.164-.172.296-.21a1 1 0 0 0 .157-.055l.018-.01.02-.01c.073-.039.163-.087.227-.055.042.064.097.08.15.095.041.011.081.023.114.056-.136.136-.3.15-.466.163-.11.01-.222.018-.328.064l-.065.004c-.073.007-.152.015-.124-.042m-4.423-2.797c-.339.68-.744 1.326-1.209 1.928a.13.13 0 0 0 .038.075c.907-1.02 1.738-1.89 2.91-2.608.029-.014.019 0 .004.019-.024.032-.06.08.033.057.393-.09.569-.423.739-.745q.063-.123.13-.238c.176-.285.428-.468.683-.654.184-.133.369-.267.527-.442a.14.14 0 0 1-.038.114c.03.029.072.043.114.038.065-.05.138-.07.209-.09.092-.027.18-.052.244-.137a1.47 1.47 0 0 0-.982-.038c-.794.378-1.474.983-2.117 1.663-.385.408-.793.794-1.285 1.058m1.852-.34a.3.3 0 0 1-.15.151c-.039 0-.077 0-.077-.038a.46.46 0 0 1 .303-.34c.038 0 .038.038.038.076a.3.3 0 0 1-.06.08c-.019.02-.037.038-.054.071m1.825 5.68c.031-.028-.002-.049-.05-.059a.3.3 0 0 0 .094-.11c.03-.074-.17-.056-.2-.035a.5.5 0 0 0-.082.084q-.073.08-.157.15l-.122.117q-.077.076-.157.147c-.064.056.144.086.189.046q.072-.065.14-.132.03-.002.06-.008a.8.8 0 0 0 .285-.2m-.643-.475-.044.032c-.127.09-.254.179-.387.256-.12.07-.244.127-.368.184l-.13.061-.006-.01a.05.05 0 0 0-.063-.014q-.21.119-.38.29l-.113.11-.006.006-.001.002-.001.001a1 1 0 0 0-.083.089.2.2 0 0 1-.05.052c-.023.016-.088.016-.082-.028v-.007l-.003.001-.064.033-.055.03-.005.002a.1.1 0 0 0-.026-.003q-.015 0-.027.009a3 3 0 0 0-.136.115q-.12.107-.22.233l-.01.014-.012.015-.012.015-.003.005-.006.008-.01.016-.01.014a.05.05 0 0 1-.032.017l-.007-.01-.009-.013-.006-.01-.004-.008-.033-.06v-.003l-.005-.009-.005-.01q.061-.066.119-.136l.008-.009.039-.048.063-.081.014-.018.01-.012q.06-.08.117-.16l.003-.004.007-.01.01-.014a2 2 0 0 0 .093-.156l.003-.006.004-.008.003-.006q0-.004.003-.008a1 1 0 0 0 .036-.088l.003-.01.002-.006a.4.4 0 0 0 .018-.06l.003-.01.003-.013.01-.042a.04.04 0 0 0-.005-.025q.065-.11.15-.204l-.009.005-.008.005a.5.5 0 0 0-.08.066 1 1 0 0 1-.06.055c-.042.03-.118-.02-.069-.057a1 1 0 0 0 .086-.078q.095-.111.197-.198l.016-.011c.037-.027.07-.05.1-.078l.011-.01.005-.005a1 1 0 0 1 .085-.095l.002-.001q0-.002.002-.002c.22-.214.534-.29.854-.37.203-.05.408-.1.593-.187.106-.042.223-.025.338-.009a.8.8 0 0 0 .267.01.56.56 0 0 1 .34.075c-.262.143-.508.3-.75.453l-.212.135zm.632-2.71h.303c-.022.042-.08.049-.118.053-.03.003-.05.006-.033.022.113.113.34.075.49 0a.62.62 0 0 1 .379-.076c.037 0 .037-.075.037-.113q.148.047.303.038c.907-.19 1.776-.378 2.608-.794-.84-.645-1.871-.932-2.884-1.214l-.518-.147c.038 0 .076.013.113.026.076.025.152.05.227-.026-.102-.082-.217-.097-.33-.112-.094-.012-.188-.025-.274-.076q.013 0 .03.004c.04.007.092.016.12-.042-.2-.1-.402-.134-.604-.168a4 4 0 0 1-.302-.059.37.37 0 0 0 .302-.378c0-.038-.075-.038-.113-.038-.454.227-.756.643-.945 1.134.169.097.353.085.533.074.102-.006.203-.012.298.002-.084.084-.21.105-.33.126q-.064.011-.123.025c-.117.029-.227.113-.19.189q.033.044.086.054a.53.53 0 0 0-.237.135c.109.08.217.065.325.05q.064-.01.13-.012c0 .05.033.067.066.084q.027.01.047.029a.68.68 0 0 0-.378.34c-.046.114-.132.186-.218.259-.057.048-.115.096-.16.157v.113c-.129.116-.262.218-.393.32-.255.196-.504.388-.703.663.038 0 .038.038.038.075a.5.5 0 0 1-.132.122c-.058.041-.112.08-.133.143 0 .038 0 .076.038.076.238-.08.444-.21.647-.34.184-.116.364-.231.562-.303a2 2 0 0 0 .437-.184c.119-.061.234-.12.357-.156a5 5 0 0 0 .302-.076c.104-.028.208-.056.303-.075 0 .038 0 .075.037.075m1.743 3.33.01-.006.006-.006a.7.7 0 0 0 .151-.147l-.01-.003-.008-.004q-.075.077-.149.167m7.373-2.48-.079.06c.043-.003.078-.014.078-.06" clip-rule="evenodd"/><path fill="#e1000f" d="M75 20H53.485q.107.035.204.095c.175.094.4.215.543.289.29.133.538.342.72.604.076.114.19.34.114.492-.076.189-.114.491-.303.567-.227.113-.529.113-.793.075a2 2 0 0 1-.454-.075c.566.226 1.096.491 1.474 1.02.037.076.188.113.34.113.038 0 .038.076.038.114-.076.076-.152.113-.114.227h.114c.188-.076.15-.454.415-.34.193.118.26.367.151.566a4 4 0 0 1-.453.378.32.32 0 0 0 0 .265q.143.206.188.454c.114.264.152.567.265.831.151.567.302 1.134.265 1.7 0 .303-.152.568-.038.87.075.302.264.53.416.794.15.226.302.378.415.604.227.378.643.756.454 1.21-.113.264-.529.226-.793.378-.227.189-.038.49.075.68.19.34-.227.567-.491.68.075.114.227.076.264.151.038.19.227.303.114.492-.151.226-.605.34-.378.68.151.264.053.558-.038.831-.113.34-.416.492-.68.567a1.54 1.54 0 0 1-.718.038.54.54 0 0 0-.227-.075c-.642-.076-1.285-.265-1.927-.265a2.2 2.2 0 0 0-.53.151q-.247.18-.457.405l-.004.004q-.043.045-.083.092l-.048.058-.033.039q-.165.207-.297.436l-.017.029-.029.052q-.179.332-.286.694c-.257.865-.145 1.608.036 1.788.05.05 1.247.42 2.081.79q.463.195.892.452h21.126z"/><path fill="gray" d="M54.765 27.296c.151.038.378.038.378.113-.075.303-.53.378-.756.68h-.113c-.113.076-.075.265-.189.265a.53.53 0 0 0-.34.038c.151.151.34.265.567.227a.17.17 0 0 1 .113.151.12.12 0 0 0 .076-.038c.038 0 .076 0 .076.038v.151c-.114.151-.303.076-.454.114.285.075.584.075.869 0 .227-.076 0-.454.151-.643-.075 0 0-.113-.075-.113.075-.076.15-.19.226-.227.09.002.175-.04.227-.113 0-.076-.151-.114-.113-.19.226-.15.415-.377.34-.604-.038-.113-.34-.113-.53-.19-.188-.075-.415 0-.642.039-.189 0-.378.113-.567.15-.257.089-.5.216-.717.379q.406-.147.831-.227c.227 0 .419-.056.642 0"/><mask id="a" width="57" height="20" x="18" y="20" mask-type="alpha" maskUnits="userSpaceOnUse"><path fill="#c4c4c4" d="M18 20h57v20H18z"/></mask><path fill="#1e1e1e" d="M20.06 65h2.84V54.96l3.12 5.24h2l3.12-5.24V65h2.84V51h-3.54l-3.42 5.88L23.6 51h-3.54zm18.127 0h2.84V51h-2.84zm7.054 0h2.84V54.88L54.34 65h3.64V51h-2.84v10.12L48.88 51h-3.64zm16.955 0h2.84V51h-2.84zm5.793-1.94c1.24 1.48 2.82 2.34 5.18 2.34 2.58 0 4.62-1.58 4.66-4.22 0-4.8-6.36-4.08-6.36-6.62 0-.84.66-1.48 1.66-1.48 1.06 0 1.98.7 2.8 1.76l2.08-1.88c-1.2-1.42-2.8-2.36-4.9-2.36-2.68 0-4.52 1.84-4.52 4.06 0 4.74 6.36 4.04 6.36 6.62 0 1-.68 1.6-1.8 1.6-1.14 0-2.26-.64-3.1-1.72zm11.58-9.48h4.32V65h2.84V53.58h4.32V51H79.57zm17.095-3.78h2.6l-2.26-2.7h-2.92zM93.844 65h8.16v-2.36h-5.32v-3.6h4.52v-2.36h-4.52v-3.32h5.32V51h-8.16zm11.76 0h2.84v-5.66h1.46l3.74 5.66h3.34l-4.38-6.2c1.44-.66 2.26-1.92 2.26-3.62 0-2.6-1.9-4.18-4.98-4.18h-4.28zm4.44-11.64c1.2 0 1.9.72 1.9 1.78 0 1.14-.7 1.84-1.9 1.84h-1.6v-3.62zM119.083 65h8.16v-2.36h-5.32v-3.6h4.52v-2.36h-4.52v-3.32h5.32V51h-8.16zM20.06 86h5.5C30 86 33 82.78 33 79s-3-7-7.44-7h-5.5zm5.54-11.42c2.6 0 4.48 1.92 4.48 4.42 0 2.48-1.88 4.42-4.48 4.42h-2.7v-8.84zM36.039 86h8.16v-2.36h-5.32v-3.6h4.52v-2.36h-4.52v-3.32h5.32V72h-8.16zm17.25 0h8.16v-2.58h-5.32V72h-2.84zm9.805 0h3.02l1.34-3.64h5.6l1.34 3.64h3.02l-5.3-14h-3.72zm5.24-6.06 1.92-5.26 1.92 5.26zm23.273 3.8c-2.64 0-4.52-2.06-4.52-4.74s1.88-4.74 4.52-4.74c1.6 0 2.86.78 3.66 1.92l2.24-1.74c-1.28-1.7-3.36-2.84-5.9-2.84-4.42 0-7.44 3.4-7.44 7.4s3.02 7.4 7.44 7.4c2.54 0 4.62-1.12 5.9-2.86l-2.24-1.72c-.8 1.14-2.06 1.92-3.66 1.92m16.765-2.98c0 1.88-1.08 2.98-2.82 2.98-1.78 0-2.84-1.1-2.84-2.98V72h-2.84v8.52c0 3.68 2.16 5.88 5.66 5.88 3.52 0 5.68-2.2 5.68-5.88V72h-2.84zM115.04 86h8.16v-2.58h-5.32V72h-2.84zm7.878-11.42h4.32V86h2.84V74.58h4.32V72h-11.48zm22.531 6.18c0 1.88-1.08 2.98-2.82 2.98-1.78 0-2.84-1.1-2.84-2.98V72h-2.84v8.52c0 3.68 2.16 5.88 5.66 5.88 3.52 0 5.68-2.2 5.68-5.88V72h-2.84zm6.668 5.24h2.84v-5.66h1.46l3.74 5.66h3.34l-4.38-6.2c1.44-.66 2.26-1.92 2.26-3.62 0-2.6-1.9-4.18-4.98-4.18h-4.28zm4.44-11.64c1.2 0 1.9.72 1.9 1.78 0 1.14-.7 1.84-1.9 1.84h-1.6v-3.62zM165.596 86h8.16v-2.36h-5.32v-3.6h4.52v-2.36h-4.52v-3.32h5.32V72h-8.16z"/><path fill="#000" fill-rule="evenodd" d="m71.96 121.7-1.86 1.7h-.48l1.1-1.94h1.24zm-1.34 6.58h-.4c-.5.6-1.06 1.08-1.6 1.08-.56 0-.84-.34-.84-1.08 0-.3.04-.62.1-.9l3.26-1.08c.64-1.52-.12-2.18-1.02-2.18-1.54 0-3.3 2.7-3.3 4.86 0 1.02.48 1.58 1.24 1.58.88-.02 1.8-.88 2.56-2.28M69.5 125c.44 0 .82.34.62 1.12l-2.02.54c.32-.96.92-1.66 1.4-1.66m-6.36.04h1.08l-1.72 4.72c-.16.4.06.8.48.8 1.22 0 2.68-1.04 3.24-2.52h-.3c-.44.62-1.4 1.3-2.12 1.42l1.58-4.42H67l.2-.68h-1.58l.6-1.7h-.62l-1.12 1.7-1.34.18zm-1.5-.9c.22 0 .52.24.38.68l-1.94 4.7c.5-.08 1.02-.56 1.32-1h.32c-.46 1.18-1.5 2.04-2.4 2.04-.22 0-.54-.24-.38-.68l1.8-4.7c-.5.08-1.02.56-1.32 1h-.3c.46-1.2 1.58-2.04 2.52-2.04m.56-1.2c.4 0 .74-.32.74-.74 0-.4-.34-.74-.74-.74-.42 0-.74.34-.74.74s.34.74.74.74m-8.74 3.9c.44-.96.28-1.4 0-1.4-.24 0-.52.26-.8.74h-.3c.46-1.02 1.06-2.04 1.72-2.04.56 0 .76.56.76 1.18v.88l.266-.311c.845-.992 1.49-1.749 2.234-1.749.58 0 .88.36.88.9 0 .32-.1.72-.32 1.14l-1.66 3.34c.5-.08 1.02-.56 1.32-1h.3c-.46 1.2-1.58 2.04-2.52 2.04-.42 0-.66-.44-.48-.8l1.92-3.7c.22-.42.26-.7-.08-.7-.46 0-1.54.76-2.12 1.46l-1.26 3.32c-.14.34-.28.42-.6.42-.52 0-.78-.34-.54-.88zm-1.3-1.28c.22-.76.1-1.44-.48-1.44-.723 0-.95.478-1.65 1.956l-.05.104v-.88c0-.62-.2-1.18-.76-1.18-.66 0-1.26 1.02-1.72 2.04h.3c.32-.46.62-.74.86-.74.28 0 .44.44 0 1.4l-1.28 2.84c-.24.54.02.88.54.88.32 0 .46-.08.6-.42l1.26-3.32c.36-.44.68-.82 1.08-1.24zm-6.32.56c.2-.78-.18-1.12-.62-1.12-.48 0-1.08.7-1.4 1.66zm.5 2.16h-.4c-.5.6-1.06 1.08-1.6 1.08-.56 0-.84-.34-.84-1.08 0-.3.04-.62.1-.9l3.26-1.08c.64-1.52-.12-2.18-1.02-2.18-1.54 0-3.3 2.7-3.3 4.86 0 1.02.48 1.58 1.24 1.58.88-.02 1.8-.88 2.56-2.28m-6.4-3.24h-1.08v-.5l1.34-.18 1.12-1.7h.62l-.6 1.7h1.58l-.2.68H41.1l-1.58 4.42c.72-.12 1.68-.8 2.12-1.42h.3c-.56 1.48-2.02 2.52-3.24 2.52-.42 0-.64-.4-.48-.8zm-6.8 3.66c0-1.46 1.62-3.42 2.52-3.42.2 0 .4.02.56.08l-.94 2.52c-.54.66-1.38 1.46-1.78 1.46-.22 0-.36-.2-.36-.64m4.46-4.88.5.04-1.74 4c-.42.96-.24 1.4 0 1.4s.54-.28.86-.74h.3c-.46 1.02-1.06 2.04-1.72 2.04-.56 0-.9-.6-.8-1.68l.04-.38-.109.152c-.716 1.002-1.365 1.908-2.031 1.908-.58 0-.88-.36-.88-.9 0-2.32 2.54-5.28 4.92-5.28h.1zm-4.58 1.74c.22-.76.1-1.44-.48-1.44-.723 0-.95.478-1.65 1.956l-.05.104v-.88c0-.62-.2-1.18-.76-1.18-.66 0-1.26 1.02-1.72 2.04h.3c.32-.46.62-.74.84-.74.28 0 .44.44 0 1.4l-1.28 2.86c-.24.54.02.88.54.88.32 0 .46-.08.6-.42l1.26-3.32c.36-.44.68-.82 1.08-1.24h1.32zm-8.24 4.4-.12.36H20l.12-.38c1.44-.26 1.68-.38 2.28-2l1.3-3.48c.58-1.62.46-1.74-.8-2l.12-.36h6.06l-.36 1.94h-.44c0-1.16-.12-1.46-1.22-1.46h-.28c-1.08 0-1.22.16-1.52 1l-.86 2.34h1.26c.84 0 1.16-.52 1.54-1.2h.44l-1.04 2.84h-.44c.1-.86.1-1.2-.68-1.2h-1.26l-.58 1.6c-.627 1.665-.448 1.699 1.045 1.982zM28.74 106.4l-1.86 1.34v.02h-.48l1.1-1.6h1.24zm13 9.38 2.98-7.92-.1-.12-2.06.24v.24l.4.3c.341.266.251.513-.032 1.289l-.048.131-2.28 6.08c-.18.36.06.8.48.8.94 0 1.94-.86 2.4-2.04h-.3c-.32.44-.96.92-1.44 1m13.66-6.1 1.86-1.7v-.24h-1.24l-1.1 1.94zm.12 4.86h.4c-.74 1.42-1.66 2.28-2.54 2.28-.76 0-1.24-.56-1.24-1.58 0-2.16 1.76-4.86 3.3-4.86.88 0 1.66.66 1.02 2.18l-3.28 1.08c-.06.28-.1.6-.1.9 0 .74.28 1.08.84 1.08.54 0 1.1-.48 1.6-1.08m-.1-2.16c.2-.76-.18-1.1-.62-1.1-.46 0-1.06.7-1.4 1.64zm-5.88-1.06h-1.08v-.5l1.34-.18 1.12-1.7h.62l-.6 1.7h1.58l-.2.68H50.7l-1.58 4.42c.72-.12 1.68-.8 2.12-1.42h.3c-.56 1.48-2.02 2.52-3.24 2.52-.42 0-.64-.4-.48-.8zm-2.2-.24c.12-.44-.16-.68-.4-.68-.94 0-2.06.86-2.52 2.04h.3c.3-.44.82-.92 1.32-1l-1.8 4.7c-.16.44.16.68.38.68.9 0 1.94-.86 2.4-2.04h-.3c-.3.44-.82.92-1.32 1zm.92-2.6c0 .4-.34.74-.74.74s-.74-.34-.74-.74.32-.74.74-.74c.4 0 .74.34.74.74m-10.1 3.08c-.9 0-2.52 1.96-2.52 3.42 0 .44.14.64.38.64.38 0 1.22-.8 1.76-1.46l.94-2.52c-.18-.06-.36-.08-.56-.08m2.44-1.42-.5-.04-.56.56h-.1c-2.38 0-4.92 2.96-4.92 5.28 0 .54.3.9.88.9.666 0 1.315-.906 2.031-1.908l.109-.152-.04.38c-.1 1.08.24 1.68.8 1.68.66 0 1.26-1.02 1.72-2.04h-.3c-.32.46-.62.74-.86.74s-.42-.44 0-1.4zm-10.08 6.48c-.86.34-1.46.74-1.46 1.36 0 .58.54.82 1.66.82 1.5 0 2.32-.44 2.32-1.02 0-.26-.34-.38-1.24-.68-.58-.18-1-.34-1.28-.48m1-2.46c-.4 0-.54-.34-.54-.7 0-1.16.56-2.6 1.46-2.6.4 0 .54.34.54.7-.02 1.18-.58 2.6-1.46 2.6m.76 1.88c1.1.34 1.78.6 1.78 1.36 0 .98-1.8 2.14-3.98 2.12-1.26 0-2.34-.34-2.34-1.16 0-.78.72-1.42 2.48-1.94a.7.7 0 0 1-.34-.64c0-.48.44-.86 1.2-1.22-.74-.1-1.22-.66-1.22-1.48 0-1.26 1.04-2.7 2.68-2.7.34 0 .64.08.88.24h1.8l-.2.68h-1.06c.06.18.1.38.1.6 0 1.22-.98 2.62-2.54 2.7-.4.22-.6.52-.6.76 0 .282.327.378 1.05.589zm-6.34-3.42c.78 0 .8.34.68 1.2h.44l1.04-2.84h-.44c-.38.68-.7 1.2-1.54 1.2H24.4l.84-2.34c.3-.84.44-1 1.52-1h.76c1.1 0 1.22.3 1.22 1.46h.44l.36-1.94h-6.52l-.12.36c1.26.26 1.38.38.8 2l-1.3 3.5c-.6 1.62-.84 1.74-2.3 2l-.1.38h7.24l1.3-2.06h-.5c-.84.82-1.68 1.58-3.32 1.58-1.804 0-1.772-.088-1.23-1.575l.11-.305.6-1.6h1.74zM31.92 95.48c.4 0 .74-.34.74-.74s-.34-.74-.74-.74c-.42 0-.74.34-.74.74 0 .42.32.74.74.74m1.74 7.6c1.56.02 4.18-2.86 4.18-5.08 0-.96-.24-1.32-.92-1.32-.84 0-1.62.9-2.4 1.98l1.68-4.5-.1-.14-2.06.24v.24l.4.3c.348.27.247.542-.05 1.338l-.03.082-1.82 4.76c-.16.4-.34.88-.34 1 0 .56.76 1.1 1.46 1.1m21.52-7.12 1.86-1.7v-.24H55.8l-1.1 1.94zm.12 4.86h.4c-.76 1.42-1.68 2.28-2.56 2.26-.76 0-1.24-.54-1.24-1.56 0-2.16 1.76-4.86 3.3-4.86.88 0 1.66.66 1.02 2.18l-3.26 1.08c-.06.28-.1.6-.1.9 0 .74.28 1.08.84 1.08.54 0 1.1-.48 1.6-1.08m-.1-2.16c.2-.76-.18-1.1-.62-1.1-.48 0-1.08.7-1.4 1.64zm-5.9-1.06h-1.08v-.5l1.34-.18 1.12-1.7h.62l-.6 1.7h1.58l-.2.68h-1.62l-1.58 4.42c.72-.12 1.68-.8 2.12-1.42h.3c-.56 1.48-2.02 2.52-3.24 2.52-.42 0-.64-.4-.48-.8zm-1.64.52c.22-.76.1-1.44-.48-1.44-.723 0-.95.478-1.65 1.956l-.05.104v-.88c0-.62-.2-1.18-.76-1.18-.66 0-1.26 1.02-1.72 2.04h.3c.32-.46.62-.74.84-.74.28 0 .44.44 0 1.4l-1.28 2.84c-.24.54.02.88.54.88.32 0 .46-.08.6-.42l1.26-3.32c.36-.44.68-.82 1.08-1.24zm-6.34.54c.2-.76-.18-1.1-.62-1.1-.48 0-1.06.7-1.4 1.64zm.5 2.16h-.4c-.5.6-1.06 1.08-1.6 1.08-.56 0-.84-.34-.84-1.08 0-.3.04-.62.1-.9l3.26-1.08c.64-1.52-.12-2.18-1.02-2.18-1.54 0-3.3 2.7-3.3 4.86 0 1.02.48 1.56 1.24 1.56.88.02 1.8-.84 2.56-2.26m-8.4.76c0 .26.46.56.78.56 1.3 0 2.52-2.34 2.5-3.64 0-.44-.22-.62-.52-.62-.48 0-1.36.72-1.92 1.4l-.52 1.4c-.18.46-.32.82-.32.9m-2.1-4.9c.24 0 .52.24.4.68l-1.92 4.7c.5-.08 1.02-.56 1.32-1h.3c-.46 1.18-1.5 2.04-2.4 2.04-.24 0-.56-.24-.4-.68l1.8-4.7c-.5.08-1.02.56-1.32 1h-.3c.46-1.18 1.58-2.04 2.52-2.04m-8.3-2.08h4.3l-.12.38c-1.46.26-1.7.38-2.3 2l-1.28 3.52c-.62 1.68-.46 1.88.64 1.88 1.359 0 2.25-.988 3.028-1.85l.172-.19h.5l-1.42 2.52H20l.12-.36c1.44-.26 1.68-.38 2.28-2l1.3-3.54c.58-1.62.46-1.74-.8-2z" clip-rule="evenodd"/><mask id="b" width="54" height="37" x="18" y="94" mask-type="alpha" maskUnits="userSpaceOnUse"><path fill="#c4c4c4" d="M18 94h54v37H18z"/></mask></svg>